<?xml version="1.0" encoding="iso-8859-1"?>
<!-- Generator: Adobe Illustrator 19.0.0, SVG Export Plug-In . SVG Version: 6.00 Build 0)  -->
<svg version="1.1" id="Capa_1" xmlns="http://www.w3.org/2000/svg" xmlns:xlink="http://www.w3.org/1999/xlink" x="0px" y="0px"
	 viewBox="0 0 368.8 368.8" style="enable-background:new 0 0 368.8 368.8;" xml:space="preserve">
<g>
	<g>
		<path d="M314.8,54c-36-36-83.2-54-130.4-54S90,18,54,54S0,137.2,0,184.4s18,94.4,54,130.4s83.2,54,130.4,54s94.4-18,130.4-54
			s54-83.2,54-130.4S350.8,90,314.8,54z M300.4,300.4c-32,32-74,48-116,48s-84-16-116-48s-48-74-48-116s16-84,48-116s74-48,116-48
			s84,16,116,48s48,74,48,116S332.4,268.4,300.4,300.4z"/>
	</g>
</g>
<g>
	<g>
		<path d="M287.2,81.2c-4-4-10.4-4-14.4,0l-96,96l-96,96c-4,4-4,10.4,0,14.4c28.4,28.4,65.6,42.8,102.8,42.8S258,316,286.4,287.6
			c28.4-28.4,42.8-65.6,42.8-102.8C330,147.2,316,110,287.2,81.2z M273.2,273.2c-24.8,24.4-56.8,36.4-88.8,36.4
			c-28.8,0-58-10-81.2-30l88.4-88.4l88.4-88.4c20,23.2,30,52.4,30,81.2C309.6,216.4,297.6,248.4,273.2,273.2z"/>
	</g>
</g>
<g>
	<g>
		<path d="M130.8,153.6c-8.4-8.4-19.2-12.8-30.4-12.8c-10.8,0-22,4-30.4,12.4c-8.4,8.4-12.4,19.2-12.4,30.4c0,10.8,4,22,12.4,30.4
			c4,4,10.4,4,14.4,0c4.4-3.6,4.4-10,0.4-14c-4.4-4.4-6.8-10-6.8-16s2-11.6,6.4-16c4.4-4.4,10-6.4,16-6.4s11.6,2,16,6.4
			c4,4,10.4,4,14.4,0S134.8,157.6,130.8,153.6z"/>
	</g>
</g>
<g>
	<g>
		<path d="M214.4,70c-8.4-8.4-19.2-12.8-30.4-12.8c-10.8,0-22,4-30.4,12.4c-8.4,8.4-12.4,19.2-12.4,30.4c0,10.8,4,22,12.4,30.4
			c4,4.8,10.4,4.8,14.4,0.8c4-4,4-10.4,0-14.4c-4.4-4.4-6.8-10.4-6.8-16c0-5.6,2.4-11.6,6.8-16c4.4-4.4,10-6.8,16-6.8s11.6,2,16,6.4
			c4,4,10.4,4,14.4,0S218.4,74,214.4,70z"/>
	</g>
</g>
<g>
</g>
<g>
</g>
<g>
</g>
<g>
</g>
<g>
</g>
<g>
</g>
<g>
</g>
<g>
</g>
<g>
</g>
<g>
</g>
<g>
</g>
<g>
</g>
<g>
</g>
<g>
</g>
<g>
</g>
</svg>
